<svg width="355" height="54" viewBox="0 0 355 54" fill="none" xmlns="http://www.w3.org/2000/svg">
<g id="searchbar">
<rect id="Rectangle 1" width="355" height="54" rx="20" fill="white"/>
<g id="bx:search">
<path id="Vector" d="M331 33C332.775 32.9996 334.499 32.4054 335.897 31.312L340.293 35.708L341.707 34.294L337.311 29.898C338.405 28.4997 339 26.7754 339 25C339 20.589 335.411 17 331 17C326.589 17 323 20.589 323 25C323 29.411 326.589 33 331 33ZM331 19C334.309 19 337 21.691 337 25C337 28.309 334.309 31 331 31C327.691 31 325 28.309 325 25C325 21.691 327.691 19 331 19Z" fill="#0B0B0D"/>
</g>
<path id="Whar are you craving?" d="M24.5227 32L21.3409 20.3636H22.7727L25.2045 29.8409H25.3182L27.7955 20.3636H29.3864L31.8636 29.8409H31.9773L34.4091 20.3636H35.8409L32.6591 32H31.2045L28.6364 22.7273H28.5455L25.9773 32H24.5227ZM38.7557 26.75V32H37.4148V20.3636H38.7557V24.6364H38.8693C39.0739 24.1856 39.3807 23.8277 39.7898 23.5625C40.2027 23.2936 40.7519 23.1591 41.4375 23.1591C42.0322 23.1591 42.553 23.2784 43 23.517C43.447 23.7519 43.7936 24.1136 44.0398 24.6023C44.2898 25.0871 44.4148 25.7045 44.4148 26.4545V32H43.0739V26.5455C43.0739 25.8523 42.8939 25.3163 42.5341 24.9375C42.178 24.5549 41.6837 24.3636 41.0511 24.3636C40.6117 24.3636 40.2178 24.4564 39.8693 24.642C39.5246 24.8277 39.2519 25.0985 39.0511 25.4545C38.8542 25.8106 38.7557 26.2424 38.7557 26.75ZM49.4361 32.2045C48.883 32.2045 48.3812 32.1004 47.9304 31.892C47.4796 31.6799 47.1217 31.375 46.8565 30.9773C46.5914 30.5758 46.4588 30.0909 46.4588 29.5227C46.4588 29.0227 46.5573 28.6174 46.7543 28.3068C46.9512 27.9924 47.2145 27.7462 47.544 27.5682C47.8736 27.3902 48.2372 27.2576 48.6349 27.1705C49.0365 27.0795 49.4399 27.0076 49.8452 26.9545C50.3755 26.8864 50.8054 26.8352 51.1349 26.8011C51.4683 26.7633 51.7107 26.7008 51.8622 26.6136C52.0175 26.5265 52.0952 26.375 52.0952 26.1591V26.1136C52.0952 25.553 51.9418 25.1174 51.6349 24.8068C51.3319 24.4962 50.8717 24.3409 50.2543 24.3409C49.6141 24.3409 49.1122 24.4811 48.7486 24.7614C48.3849 25.0417 48.1293 25.3409 47.9815 25.6591L46.7088 25.2045C46.9361 24.6742 47.2391 24.2614 47.6179 23.9659C48.0005 23.6667 48.4171 23.4583 48.8679 23.3409C49.3224 23.2197 49.7694 23.1591 50.2088 23.1591C50.4891 23.1591 50.8111 23.1932 51.1747 23.2614C51.5421 23.3258 51.8963 23.4602 52.2372 23.6648C52.5819 23.8693 52.8679 24.178 53.0952 24.5909C53.3224 25.0038 53.4361 25.5568 53.4361 26.25V32H52.0952V30.8182H52.027C51.9361 31.0076 51.7846 31.2102 51.5724 31.4261C51.3603 31.642 51.0781 31.8258 50.7259 31.9773C50.3736 32.1288 49.9437 32.2045 49.4361 32.2045ZM49.6406 31C50.1709 31 50.6179 30.8958 50.9815 30.6875C51.349 30.4792 51.6255 30.2102 51.8111 29.8807C52.0005 29.5511 52.0952 29.2045 52.0952 28.8409V27.6136C52.0384 27.6818 51.9134 27.7443 51.7202 27.8011C51.5308 27.8542 51.3111 27.9015 51.0611 27.9432C50.8149 27.9811 50.5743 28.0152 50.3395 28.0455C50.1084 28.072 49.9209 28.0947 49.777 28.1136C49.4285 28.1591 49.1027 28.233 48.7997 28.3352C48.5005 28.4337 48.258 28.5833 48.0724 28.7841C47.8906 28.9811 47.7997 29.25 47.7997 29.5909C47.7997 30.0568 47.9721 30.4091 48.3168 30.6477C48.6652 30.8826 49.1065 31 49.6406 31ZM55.8835 32V23.2727H57.179V24.5909H57.2699C57.429 24.1591 57.7169 23.8087 58.1335 23.5398C58.5502 23.2708 59.0199 23.1364 59.5426 23.1364C59.6411 23.1364 59.7642 23.1383 59.9119 23.142C60.0597 23.1458 60.1714 23.1515 60.2472 23.1591V24.5227C60.2017 24.5114 60.0975 24.4943 59.9347 24.4716C59.7756 24.4451 59.607 24.4318 59.429 24.4318C59.0047 24.4318 58.6259 24.5208 58.2926 24.6989C57.9631 24.8731 57.7017 25.1155 57.5085 25.4261C57.3191 25.733 57.2244 26.0833 57.2244 26.4773V32H55.8835ZM68.9048 32.2045C68.3518 32.2045 67.8499 32.1004 67.3991 31.892C66.9484 31.6799 66.5904 31.375 66.3253 30.9773C66.0601 30.5758 65.9276 30.0909 65.9276 29.5227C65.9276 29.0227 66.026 28.6174 66.223 28.3068C66.42 27.9924 66.6832 27.7462 67.0128 27.5682C67.3423 27.3902 67.706 27.2576 68.1037 27.1705C68.5052 27.0795 68.9086 27.0076 69.3139 26.9545C69.8442 26.8864 70.2741 26.8352 70.6037 26.8011C70.937 26.7633 71.1795 26.7008 71.331 26.6136C71.4863 26.5265 71.5639 26.375 71.5639 26.1591V26.1136C71.5639 25.553 71.4105 25.1174 71.1037 24.8068C70.8007 24.4962 70.3404 24.3409 69.723 24.3409C69.0829 24.3409 68.581 24.4811 68.2173 24.7614C67.8537 25.0417 67.598 25.3409 67.4503 25.6591L66.1776 25.2045C66.4048 24.6742 66.7079 24.2614 67.0866 23.9659C67.4692 23.6667 67.8859 23.4583 68.3366 23.3409C68.7912 23.2197 69.2382 23.1591 69.6776 23.1591C69.9579 23.1591 70.2798 23.1932 70.6435 23.2614C71.0109 23.3258 71.3651 23.4602 71.706 23.6648C72.0507 23.8693 72.3366 24.178 72.5639 24.5909C72.7912 25.0038 72.9048 25.5568 72.9048 26.25V32H71.5639V30.8182H71.4957C71.4048 31.0076 71.2533 31.2102 71.0412 31.4261C70.8291 31.642 70.5469 31.8258 70.1946 31.9773C69.8423 32.1288 69.4124 32.2045 68.9048 32.2045ZM69.1094 31C69.6397 31 70.0866 30.8958 70.4503 30.6875C70.8177 30.4792 71.0942 30.2102 71.2798 29.8807C71.4692 29.5511 71.5639 29.2045 71.5639 28.8409V27.6136C71.5071 27.6818 71.3821 27.7443 71.1889 27.8011C70.9995 27.8542 70.7798 27.9015 70.5298 27.9432C70.2836 27.9811 70.0431 28.0152 69.8082 28.0455C69.5772 28.072 69.3897 28.0947 69.2457 28.1136C68.8973 28.1591 68.5715 28.233 68.2685 28.3352C67.9692 28.4337 67.7268 28.5833 67.5412 28.7841C67.3594 28.9811 67.2685 29.25 67.2685 29.5909C67.2685 30.0568 67.4408 30.4091 67.7855 30.6477C68.134 30.8826 68.5753 31 69.1094 31ZM75.3523 32V23.2727H76.6477V24.5909H76.7386C76.8977 24.1591 77.1856 23.8087 77.6023 23.5398C78.0189 23.2708 78.4886 23.1364 79.0114 23.1364C79.1098 23.1364 79.233 23.1383 79.3807 23.142C79.5284 23.1458 79.6402 23.1515 79.7159 23.1591V24.5227C79.6705 24.5114 79.5663 24.4943 79.4034 24.4716C79.2443 24.4451 79.0758 24.4318 78.8977 24.4318C78.4735 24.4318 78.0947 24.5208 77.7614 24.6989C77.4318 24.8731 77.1705 25.1155 76.9773 25.4261C76.7879 25.733 76.6932 26.0833 76.6932 26.4773V32H75.3523ZM84.6989 32.1818C83.858 32.1818 83.1326 31.9962 82.5227 31.625C81.9167 31.25 81.4489 30.7273 81.1193 30.0568C80.7936 29.3826 80.6307 28.5985 80.6307 27.7045C80.6307 26.8106 80.7936 26.0227 81.1193 25.3409C81.4489 24.6553 81.9072 24.1212 82.4943 23.7386C83.0852 23.3523 83.7746 23.1591 84.5625 23.1591C85.017 23.1591 85.4659 23.2348 85.9091 23.3864C86.3523 23.5379 86.7557 23.7841 87.1193 24.125C87.483 24.4621 87.7727 24.9091 87.9886 25.4659C88.2045 26.0227 88.3125 26.7083 88.3125 27.5227V28.0909H81.5852V26.9318H86.9489C86.9489 26.4394 86.8504 26 86.6534 25.6136C86.4602 25.2273 86.1837 24.9223 85.8239 24.6989C85.4678 24.4754 85.0473 24.3636 84.5625 24.3636C84.0284 24.3636 83.5663 24.4962 83.1761 24.7614C82.7898 25.0227 82.4924 25.3636 82.2841 25.7841C82.0758 26.2045 81.9716 26.6553 81.9716 27.1364V27.9091C81.9716 28.5682 82.0852 29.1269 82.3125 29.5852C82.5436 30.0398 82.8636 30.3864 83.2727 30.625C83.6818 30.8598 84.1572 30.9773 84.6989 30.9773C85.0511 30.9773 85.3693 30.928 85.6534 30.8295C85.9413 30.7273 86.1894 30.5758 86.3977 30.375C86.6061 30.1705 86.767 29.9167 86.8807 29.6136L88.1761 29.9773C88.0398 30.4167 87.8106 30.803 87.4886 31.1364C87.1667 31.4659 86.7689 31.7235 86.2955 31.9091C85.822 32.0909 85.2898 32.1818 84.6989 32.1818ZM95.7159 35.2727C95.4886 35.2727 95.286 35.2538 95.108 35.2159C94.9299 35.1818 94.8068 35.1477 94.7386 35.1136L95.0795 33.9318C95.4053 34.0152 95.6932 34.0455 95.9432 34.0227C96.1932 34 96.4148 33.8883 96.608 33.6875C96.8049 33.4905 96.9848 33.1705 97.1477 32.7273L97.3977 32.0455L94.1705 23.2727H95.625L98.0341 30.2273H98.125L100.534 23.2727H101.989L98.2841 33.2727C98.1174 33.7235 97.911 34.0966 97.6648 34.392C97.4186 34.6913 97.1326 34.9129 96.8068 35.0568C96.4848 35.2008 96.1212 35.2727 95.7159 35.2727ZM106.991 32.1818C106.204 32.1818 105.512 31.9943 104.918 31.6193C104.327 31.2443 103.865 30.7197 103.531 30.0455C103.202 29.3712 103.037 28.5833 103.037 27.6818C103.037 26.7727 103.202 25.9792 103.531 25.3011C103.865 24.6231 104.327 24.0966 104.918 23.7216C105.512 23.3466 106.204 23.1591 106.991 23.1591C107.779 23.1591 108.469 23.3466 109.06 23.7216C109.654 24.0966 110.116 24.6231 110.446 25.3011C110.779 25.9792 110.946 26.7727 110.946 27.6818C110.946 28.5833 110.779 29.3712 110.446 30.0455C110.116 30.7197 109.654 31.2443 109.06 31.6193C108.469 31.9943 107.779 32.1818 106.991 32.1818ZM106.991 30.9773C107.59 30.9773 108.082 30.8239 108.469 30.517C108.855 30.2102 109.141 29.8068 109.327 29.3068C109.512 28.8068 109.605 28.2652 109.605 27.6818C109.605 27.0985 109.512 26.5549 109.327 26.0511C109.141 25.5473 108.855 25.1402 108.469 24.8295C108.082 24.5189 107.59 24.3636 106.991 24.3636C106.393 24.3636 105.901 24.5189 105.514 24.8295C105.128 25.1402 104.842 25.5473 104.656 26.0511C104.471 26.5549 104.378 27.0985 104.378 27.6818C104.378 28.2652 104.471 28.8068 104.656 29.3068C104.842 29.8068 105.128 30.2102 105.514 30.517C105.901 30.8239 106.393 30.9773 106.991 30.9773ZM118.493 28.4318V23.2727H119.834V32H118.493V30.5227H118.402C118.197 30.9659 117.879 31.3428 117.447 31.6534C117.016 31.9602 116.47 32.1136 115.811 32.1136C115.266 32.1136 114.781 31.9943 114.357 31.7557C113.932 31.5133 113.599 31.1496 113.357 30.6648C113.114 30.1761 112.993 29.5606 112.993 28.8182V23.2727H114.334V28.7273C114.334 29.3636 114.512 29.8712 114.868 30.25C115.228 30.6288 115.686 30.8182 116.243 30.8182C116.576 30.8182 116.915 30.733 117.26 30.5625C117.608 30.392 117.9 30.1307 118.135 29.7784C118.374 29.4261 118.493 28.9773 118.493 28.4318ZM130.335 32.1818C129.517 32.1818 128.813 31.9886 128.222 31.6023C127.631 31.2159 127.176 30.6837 126.858 30.0057C126.54 29.3277 126.381 28.553 126.381 27.6818C126.381 26.7955 126.544 26.0133 126.869 25.3352C127.199 24.6534 127.657 24.1212 128.244 23.7386C128.835 23.3523 129.525 23.1591 130.312 23.1591C130.926 23.1591 131.479 23.2727 131.972 23.5C132.464 23.7273 132.867 24.0455 133.182 24.4545C133.496 24.8636 133.691 25.3409 133.767 25.8864H132.426C132.324 25.4886 132.097 25.1364 131.744 24.8295C131.396 24.5189 130.926 24.3636 130.335 24.3636C129.813 24.3636 129.354 24.5 128.96 24.7727C128.57 25.0417 128.265 25.4223 128.045 25.9148C127.83 26.4034 127.722 26.9773 127.722 27.6364C127.722 28.3106 127.828 28.8977 128.04 29.3977C128.256 29.8977 128.559 30.286 128.949 30.5625C129.343 30.839 129.805 30.9773 130.335 30.9773C130.684 30.9773 131 30.9167 131.284 30.7955C131.568 30.6742 131.809 30.5 132.006 30.2727C132.203 30.0455 132.343 29.7727 132.426 29.4545H133.767C133.691 29.9697 133.504 30.4337 133.205 30.8466C132.909 31.2557 132.517 31.5814 132.028 31.8239C131.544 32.0625 130.979 32.1818 130.335 32.1818ZM135.727 32V23.2727H137.023V24.5909H137.114C137.273 24.1591 137.561 23.8087 137.977 23.5398C138.394 23.2708 138.864 23.1364 139.386 23.1364C139.485 23.1364 139.608 23.1383 139.756 23.142C139.903 23.1458 140.015 23.1515 140.091 23.1591V24.5227C140.045 24.5114 139.941 24.4943 139.778 24.4716C139.619 24.4451 139.451 24.4318 139.273 24.4318C138.848 24.4318 138.47 24.5208 138.136 24.6989C137.807 24.8731 137.545 25.1155 137.352 25.4261C137.163 25.733 137.068 26.0833 137.068 26.4773V32H135.727ZM144.249 32.2045C143.696 32.2045 143.194 32.1004 142.743 31.892C142.292 31.6799 141.934 31.375 141.669 30.9773C141.404 30.5758 141.271 30.0909 141.271 29.5227C141.271 29.0227 141.37 28.6174 141.567 28.3068C141.764 27.9924 142.027 27.7462 142.357 27.5682C142.686 27.3902 143.05 27.2576 143.447 27.1705C143.849 27.0795 144.252 27.0076 144.658 26.9545C145.188 26.8864 145.618 26.8352 145.947 26.8011C146.281 26.7633 146.523 26.7008 146.675 26.6136C146.83 26.5265 146.908 26.375 146.908 26.1591V26.1136C146.908 25.553 146.754 25.1174 146.447 24.8068C146.144 24.4962 145.684 24.3409 145.067 24.3409C144.427 24.3409 143.925 24.4811 143.561 24.7614C143.197 25.0417 142.942 25.3409 142.794 25.6591L141.521 25.2045C141.749 24.6742 142.052 24.2614 142.43 23.9659C142.813 23.6667 143.23 23.4583 143.68 23.3409C144.135 23.2197 144.582 23.1591 145.021 23.1591C145.302 23.1591 145.624 23.1932 145.987 23.2614C146.355 23.3258 146.709 23.4602 147.05 23.6648C147.394 23.8693 147.68 24.178 147.908 24.5909C148.135 25.0038 148.249 25.5568 148.249 26.25V32H146.908V30.8182H146.839C146.749 31.0076 146.597 31.2102 146.385 31.4261C146.173 31.642 145.891 31.8258 145.538 31.9773C145.186 32.1288 144.756 32.2045 144.249 32.2045ZM144.453 31C144.983 31 145.43 30.8958 145.794 30.6875C146.161 30.4792 146.438 30.2102 146.624 29.8807C146.813 29.5511 146.908 29.2045 146.908 28.8409V27.6136C146.851 27.6818 146.726 27.7443 146.533 27.8011C146.343 27.8542 146.124 27.9015 145.874 27.9432C145.627 27.9811 145.387 28.0152 145.152 28.0455C144.921 28.072 144.733 28.0947 144.589 28.1136C144.241 28.1591 143.915 28.233 143.612 28.3352C143.313 28.4337 143.071 28.5833 142.885 28.7841C142.703 28.9811 142.612 29.25 142.612 29.5909C142.612 30.0568 142.785 30.4091 143.129 30.6477C143.478 30.8826 143.919 31 144.453 31ZM157.52 23.2727L154.293 32H152.929L149.702 23.2727H151.156L153.565 30.2273H153.656L156.065 23.2727H157.52ZM159.29 32V23.2727H160.631V32H159.29ZM159.972 21.8182C159.71 21.8182 159.485 21.7292 159.295 21.5511C159.11 21.3731 159.017 21.1591 159.017 20.9091C159.017 20.6591 159.11 20.4451 159.295 20.267C159.485 20.089 159.71 20 159.972 20C160.233 20 160.456 20.089 160.642 20.267C160.831 20.4451 160.926 20.6591 160.926 20.9091C160.926 21.1591 160.831 21.3731 160.642 21.5511C160.456 21.7292 160.233 21.8182 159.972 21.8182ZM164.428 26.75V32H163.087V23.2727H164.382V24.6364H164.496C164.7 24.1932 165.011 23.8371 165.428 23.5682C165.844 23.2955 166.382 23.1591 167.041 23.1591C167.632 23.1591 168.149 23.2803 168.592 23.5227C169.036 23.7614 169.38 24.125 169.626 24.6136C169.873 25.0985 169.996 25.7121 169.996 26.4545V32H168.655V26.5455C168.655 25.8598 168.477 25.3258 168.121 24.9432C167.765 24.5568 167.276 24.3636 166.655 24.3636C166.227 24.3636 165.844 24.4564 165.507 24.642C165.174 24.8277 164.911 25.0985 164.717 25.4545C164.524 25.8106 164.428 26.2424 164.428 26.75ZM175.969 35.4545C175.321 35.4545 174.764 35.3712 174.298 35.2045C173.832 35.0417 173.444 34.8258 173.134 34.5568C172.827 34.2917 172.582 34.0076 172.401 33.7045L173.469 32.9545C173.59 33.1136 173.743 33.2955 173.929 33.5C174.115 33.7083 174.368 33.8883 174.69 34.0398C175.016 34.1951 175.442 34.2727 175.969 34.2727C176.673 34.2727 177.255 34.1023 177.713 33.7614C178.171 33.4205 178.401 32.8864 178.401 32.1591V30.3864H178.287C178.188 30.5455 178.048 30.7424 177.866 30.9773C177.688 31.2083 177.431 31.4148 177.094 31.5966C176.76 31.7746 176.31 31.8636 175.741 31.8636C175.037 31.8636 174.404 31.697 173.844 31.3636C173.287 31.0303 172.846 30.5455 172.52 29.9091C172.198 29.2727 172.037 28.5 172.037 27.5909C172.037 26.697 172.194 25.9186 172.509 25.2557C172.823 24.589 173.26 24.0739 173.821 23.7102C174.382 23.3428 175.029 23.1591 175.764 23.1591C176.332 23.1591 176.783 23.2538 177.116 23.4432C177.454 23.6288 177.711 23.8409 177.889 24.0795C178.071 24.3144 178.211 24.5076 178.31 24.6591H178.446V23.2727H179.741V32.25C179.741 33 179.571 33.6098 179.23 34.0795C178.893 34.553 178.438 34.8996 177.866 35.1193C177.298 35.3428 176.666 35.4545 175.969 35.4545ZM175.923 30.6591C176.461 30.6591 176.916 30.536 177.287 30.2898C177.658 30.0436 177.94 29.6894 178.134 29.2273C178.327 28.7652 178.423 28.2121 178.423 27.5682C178.423 26.9394 178.329 26.3845 178.139 25.9034C177.95 25.4223 177.67 25.0455 177.298 24.7727C176.927 24.5 176.469 24.3636 175.923 24.3636C175.355 24.3636 174.882 24.5076 174.503 24.7955C174.128 25.0833 173.846 25.4697 173.656 25.9545C173.471 26.4394 173.378 26.9773 173.378 27.5682C173.378 28.1742 173.473 28.7102 173.662 29.1761C173.855 29.6383 174.139 30.0019 174.514 30.267C174.893 30.5284 175.363 30.6591 175.923 30.6591ZM183.946 28.7273V28.6591C183.954 27.9356 184.029 27.3598 184.173 26.9318C184.317 26.5038 184.522 26.1572 184.787 25.892C185.052 25.6269 185.37 25.3826 185.741 25.1591C185.965 25.0227 186.166 24.8617 186.344 24.6761C186.522 24.4867 186.662 24.2689 186.764 24.0227C186.87 23.7765 186.923 23.5038 186.923 23.2045C186.923 22.8333 186.836 22.5114 186.662 22.2386C186.488 21.9659 186.255 21.7557 185.963 21.608C185.671 21.4602 185.348 21.3864 184.991 21.3864C184.681 21.3864 184.382 21.4508 184.094 21.5795C183.806 21.7083 183.565 21.911 183.372 22.1875C183.179 22.464 183.067 22.8258 183.037 23.2727H181.605C181.635 22.6288 181.802 22.0777 182.105 21.6193C182.412 21.161 182.815 20.8106 183.315 20.5682C183.819 20.3258 184.378 20.2045 184.991 20.2045C185.658 20.2045 186.238 20.3371 186.73 20.6023C187.226 20.8674 187.609 21.2311 187.878 21.6932C188.151 22.1553 188.287 22.6818 188.287 23.2727C188.287 23.6894 188.223 24.0663 188.094 24.4034C187.969 24.7405 187.787 25.0417 187.548 25.3068C187.313 25.572 187.029 25.8068 186.696 26.0114C186.363 26.2197 186.096 26.4394 185.895 26.6705C185.694 26.8977 185.548 27.1686 185.457 27.483C185.366 27.7973 185.317 28.1894 185.31 28.6591V28.7273H183.946ZM184.673 32.0909C184.393 32.0909 184.152 31.9905 183.952 31.7898C183.751 31.589 183.651 31.3485 183.651 31.0682C183.651 30.7879 183.751 30.5473 183.952 30.3466C184.152 30.1458 184.393 30.0455 184.673 30.0455C184.954 30.0455 185.194 30.1458 185.395 30.3466C185.596 30.5473 185.696 30.7879 185.696 31.0682C185.696 31.2538 185.649 31.4242 185.554 31.5795C185.463 31.7348 185.34 31.8598 185.185 31.9545C185.033 32.0455 184.863 32.0909 184.673 32.0909Z" fill="#777777"/>
</g>
</svg>
